<svg xmlns="http://www.w3.org/2000/svg" width="60.0mm" height="5.0mm" viewBox="0 0 60.0 5.0" version="1.1">
<rect x="0" y="0" width="60.0" height="5.0" fill="#FFFFFF"/>
<g transform="translate(5.0, 0)"><rect x="0.000000" y="0" width="0.813008" height="5.0" fill="#000000" /><rect x="1.219512" y="0" width="0.406504" height="5.0" fill="#000000" /><rect x="2.439024" y="0" width="0.406504" height="5.0" fill="#000000" /><rect x="4.471545" y="0" width="0.406504" height="5.0" fill="#000000" /><rect x="6.504065" y="0" width="0.406504" height="5.0" fill="#000000" /><rect x="7.723577" y="0" width="0.813008" height="5.0" fill="#000000" /><rect x="8.943089" y="0" width="0.406504" height="5.0" fill="#000000" /><rect x="10.162602" y="0" width="1.219512" height="5.0" fill="#000000" /><rect x="11.788618" y="0" width="0.813008" height="5.0" fill="#000000" /><rect x="13.414634" y="0" width="0.813008" height="5.0" fill="#000000" /><rect x="15.040650" y="0" width="1.219512" height="5.0" fill="#000000" /><rect x="17.073171" y="0" width="0.406504" height="5.0" fill="#000000" /><rect x="17.886179" y="0" width="0.406504" height="5.0" fill="#000000" /><rect x="19.105691" y="0" width="0.813008" height="5.0" fill="#000000" /><rect x="21.544715" y="0" width="0.406504" height="5.0" fill="#000000" /><rect x="22.357724" y="0" width="0.406504" height="5.0" fill="#000000" /><rect x="23.577236" y="0" width="1.219512" height="5.0" fill="#000000" /><rect x="25.609756" y="0" width="0.813008" height="5.0" fill="#000000" /><rect x="26.829268" y="0" width="0.406504" height="5.0" fill="#000000" /><rect x="28.048780" y="0" width="1.219512" height="5.0" fill="#000000" /><rect x="29.674797" y="0" width="0.813008" height="5.0" fill="#000000" /><rect x="31.300813" y="0" width="0.406504" height="5.0" fill="#000000" /><rect x="32.520325" y="0" width="1.219512" height="5.0" fill="#000000" /><rect x="34.146341" y="0" width="0.813008" height="5.0" fill="#000000" /><rect x="35.772358" y="0" width="0.406504" height="5.0" fill="#000000" /><rect x="36.991870" y="0" width="1.219512" height="5.0" fill="#000000" /><rect x="38.617886" y="0" width="0.813008" height="5.0" fill="#000000" /><rect x="40.243902" y="0" width="0.813008" height="5.0" fill="#000000" /><rect x="42.276423" y="0" width="0.406504" height="5.0" fill="#000000" /><rect x="43.089431" y="0" width="0.406504" height="5.0" fill="#000000" /><rect x="44.715447" y="0" width="0.813008" height="5.0" fill="#000000" /><rect x="46.747967" y="0" width="1.219512" height="5.0" fill="#000000" /><rect x="48.373984" y="0" width="0.406504" height="5.0" fill="#000000" /><rect x="49.186992" y="0" width="0.813008" height="5.0" fill="#000000" /></g>
</svg>